<svg xmlns="http://www.w3.org/2000/svg" xmlns:xlink="http://www.w3.org/1999/xlink" width="50px" height="89px" viewBox="0 0 50 88" version="1.1">
<defs fill="#000000">
<clipPath id="clip1" fill="#000000">
  <path d="M 13.121094 30.269531 L 36.871094 30.269531 L 36.871094 53.78125 L 13.121094 53.78125 Z M 13.121094 30.269531 " fill="#000000"/>
</clipPath>
</defs>
<g id="surface1">
<g clip-path="url(#clip1)" clip-rule="nonzero">
<path style=" stroke:none;fill-rule:nonzero;fill:#667c98;fill-opacity:1;" d="M 23.625 30.269531 Z M 22.152344 37.351562 C 22.246094 37.386719 22.34375 37.417969 22.449219 37.4375 L 22.320312 37.757812 C 22.25 37.929688 22.335938 38.125 22.507812 38.191406 C 22.683594 38.261719 22.878906 38.179688 22.949219 38.007812 L 23.144531 37.527344 L 23.210938 37.535156 C 23.59375 37.582031 23.984375 37.507812 24.308594 37.351562 C 24.648438 37.1875 24.925781 36.925781 25.054688 36.609375 C 25.089844 36.527344 25.109375 36.4375 25.121094 36.351562 C 25.152344 36.109375 25.09375 35.878906 24.957031 35.683594 C 24.828125 35.5 24.640625 35.351562 24.398438 35.257812 C 24.277344 35.207031 24.140625 35.171875 23.996094 35.15625 L 23.339844 35.074219 C 23.253906 35.0625 23.175781 35.042969 23.101562 35.011719 C 22.988281 34.96875 22.902344 34.902344 22.851562 34.828125 C 22.808594 34.765625 22.789062 34.695312 22.796875 34.625 L 22.800781 34.621094 C 22.804688 34.589844 22.8125 34.558594 22.824219 34.527344 C 22.886719 34.375 23.042969 34.238281 23.238281 34.140625 C 23.453125 34.039062 23.707031 33.988281 23.953125 34.019531 L 24.261719 34.058594 C 24.273438 34.0625 24.285156 34.0625 24.296875 34.0625 L 24.609375 34.101562 C 24.695312 34.113281 24.773438 34.132812 24.84375 34.160156 C 24.957031 34.207031 25.042969 34.273438 25.097656 34.347656 C 25.140625 34.40625 25.160156 34.476562 25.148438 34.550781 C 25.144531 34.582031 25.136719 34.613281 25.121094 34.644531 C 25.054688 34.816406 25.136719 35.011719 25.3125 35.082031 C 25.484375 35.148438 25.683594 35.066406 25.75 34.894531 C 25.785156 34.808594 25.808594 34.722656 25.820312 34.636719 L 25.820312 34.632812 C 25.851562 34.390625 25.789062 34.160156 25.652344 33.964844 C 25.527344 33.785156 25.335938 33.636719 25.097656 33.539062 C 25.003906 33.503906 24.90625 33.476562 24.796875 33.453125 L 24.929688 33.132812 C 25 32.960938 24.914062 32.769531 24.742188 32.699219 C 24.566406 32.628906 24.371094 32.714844 24.300781 32.886719 L 24.105469 33.363281 L 24.035156 33.355469 C 23.65625 33.308594 23.265625 33.382812 22.941406 33.539062 C 22.597656 33.703125 22.324219 33.964844 22.195312 34.28125 C 22.160156 34.367188 22.136719 34.457031 22.125 34.542969 C 22.09375 34.785156 22.15625 35.015625 22.292969 35.210938 C 22.417969 35.390625 22.609375 35.539062 22.847656 35.636719 C 22.96875 35.683594 23.105469 35.71875 23.253906 35.738281 L 23.90625 35.820312 C 23.996094 35.828125 24.074219 35.851562 24.144531 35.878906 C 24.257812 35.921875 24.34375 35.988281 24.398438 36.0625 C 24.4375 36.125 24.457031 36.195312 24.449219 36.269531 C 24.445312 36.296875 24.4375 36.328125 24.421875 36.363281 C 24.359375 36.515625 24.207031 36.652344 24.007812 36.75 C 23.792969 36.851562 23.539062 36.902344 23.292969 36.871094 L 22.988281 36.832031 C 22.972656 36.832031 22.960938 36.828125 22.949219 36.828125 L 22.640625 36.789062 C 22.554688 36.777344 22.472656 36.757812 22.402344 36.730469 C 22.289062 36.683594 22.203125 36.621094 22.152344 36.546875 C 22.109375 36.484375 22.089844 36.414062 22.097656 36.339844 C 22.101562 36.3125 22.109375 36.28125 22.125 36.246094 C 22.195312 36.074219 22.109375 35.878906 21.9375 35.808594 C 21.761719 35.742188 21.566406 35.824219 21.496094 35.996094 C 21.460938 36.082031 21.4375 36.167969 21.429688 36.257812 C 21.398438 36.5 21.457031 36.730469 21.59375 36.925781 C 21.722656 37.105469 21.914062 37.257812 22.152344 37.351562 Z M 23.625 31.617188 Z M 14.726562 35.445312 C 14.726562 34.332031 15.765625 33.351562 17.445312 32.667969 C 19.03125 32.019531 21.21875 31.617188 23.625 31.617188 C 26.03125 31.617188 28.21875 32.019531 29.808594 32.667969 C 31.484375 33.351562 32.523438 34.332031 32.523438 35.445312 C 32.523438 36.558594 31.484375 37.539062 29.808594 38.222656 C 28.21875 38.871094 26.03125 39.273438 23.625 39.273438 C 21.21875 39.273438 19.03125 38.871094 17.445312 38.222656 C 15.765625 37.539062 14.726562 36.558594 14.726562 35.445312 Z M 15.40625 35.445312 C 15.40625 36.261719 16.28125 37.027344 17.699219 37.605469 C 19.210938 38.21875 21.304688 38.601562 23.625 38.601562 C 25.945312 38.601562 28.039062 38.21875 29.550781 37.605469 C 30.96875 37.027344 31.847656 36.261719 31.847656 35.445312 C 31.847656 34.628906 30.96875 33.863281 29.550781 33.285156 C 28.039062 32.671875 25.945312 32.289062 23.625 32.289062 C 21.304688 32.289062 19.210938 32.671875 17.699219 33.285156 C 16.28125 33.863281 15.40625 34.628906 15.40625 35.445312 Z M 36.878906 40.210938 L 36.878906 43.847656 C 36.878906 44.691406 36.480469 45.484375 35.769531 46.183594 C 35.757812 46.203125 35.738281 46.222656 35.71875 46.234375 C 35.574219 46.375 35.417969 46.507812 35.246094 46.640625 L 35.25 48.613281 C 35.25 50.089844 34.035156 51.40625 32.078125 52.339844 C 30.195312 53.234375 27.601562 53.789062 24.746094 53.789062 C 21.886719 53.789062 19.292969 53.234375 17.410156 52.339844 C 15.453125 51.40625 14.242188 50.089844 14.242188 48.613281 L 14.242188 44.980469 C 14.242188 44.449219 14.402344 43.933594 14.699219 43.449219 C 14.917969 43.089844 15.214844 42.746094 15.578125 42.429688 C 15.078125 42.136719 14.640625 41.8125 14.28125 41.46875 C 14.261719 41.453125 14.246094 41.4375 14.230469 41.417969 C 13.519531 40.71875 13.121094 39.925781 13.121094 39.082031 L 13.121094 35.445312 C 13.121094 33.96875 14.332031 32.65625 16.292969 31.722656 C 18.175781 30.824219 20.769531 30.269531 23.625 30.269531 C 26.480469 30.269531 29.074219 30.824219 30.957031 31.722656 C 32.917969 32.65625 34.128906 33.96875 34.128906 35.445312 L 34.128906 36.703125 C 34.953125 37.144531 35.621094 37.65625 36.089844 38.222656 C 36.597656 38.832031 36.878906 39.503906 36.878906 40.210938 Z M 34.128906 37.472656 L 34.128906 38.300781 C 34.464844 38.554688 34.734375 38.832031 34.929688 39.125 C 35.152344 39.46875 35.273438 39.835938 35.273438 40.214844 C 35.273438 41.304688 34.277344 42.269531 32.65625 42.949219 C 31.125 43.59375 29.011719 44.003906 26.671875 44.035156 C 26.660156 44.039062 26.644531 44.039062 26.628906 44.042969 C 26.597656 44.046875 26.570312 44.050781 26.542969 44.054688 C 26.421875 44.070312 26.304688 44.085938 26.183594 44.101562 C 26.171875 44.105469 26.164062 44.105469 26.15625 44.105469 C 26.15625 44.105469 26.15625 44.105469 26.152344 44.105469 C 26.152344 44.105469 26.152344 44.105469 26.148438 44.105469 C 26.132812 44.109375 26.117188 44.109375 26.101562 44.113281 C 25.996094 44.125 25.886719 44.136719 25.777344 44.148438 C 25.761719 44.148438 25.742188 44.152344 25.726562 44.152344 C 25.601562 44.164062 25.480469 44.175781 25.355469 44.183594 C 25.34375 44.1875 25.332031 44.1875 25.320312 44.1875 C 25.300781 44.1875 25.28125 44.191406 25.261719 44.191406 C 25.222656 44.195312 25.183594 44.199219 25.140625 44.203125 C 25.121094 44.203125 25.101562 44.203125 25.085938 44.203125 C 24.609375 44.238281 24.121094 44.253906 23.625 44.253906 C 23.132812 44.253906 22.652344 44.238281 22.175781 44.207031 C 22.152344 44.203125 22.128906 44.203125 22.105469 44.199219 C 22.066406 44.199219 22.03125 44.195312 21.992188 44.191406 C 21.972656 44.191406 21.953125 44.1875 21.929688 44.1875 L 21.839844 44.179688 C 21.816406 44.179688 21.792969 44.175781 21.769531 44.175781 L 21.726562 44.171875 C 21.738281 44.171875 21.75 44.175781 21.761719 44.179688 C 21.863281 44.203125 21.964844 44.230469 22.066406 44.253906 C 22.066406 44.253906 22.070312 44.253906 22.070312 44.253906 C 22.140625 44.269531 22.210938 44.285156 22.28125 44.300781 C 22.292969 44.300781 22.300781 44.304688 22.308594 44.304688 C 22.824219 44.414062 23.359375 44.503906 23.914062 44.570312 C 23.917969 44.570312 23.921875 44.570312 23.925781 44.570312 C 24.707031 44.664062 25.527344 44.714844 26.375 44.714844 C 27.21875 44.714844 28.035156 44.664062 28.816406 44.570312 C 28.824219 44.570312 28.832031 44.570312 28.839844 44.570312 C 29.167969 44.53125 29.488281 44.484375 29.804688 44.429688 C 30.019531 44.390625 30.230469 44.351562 30.4375 44.308594 C 30.449219 44.304688 30.460938 44.300781 30.476562 44.300781 C 30.476562 44.300781 30.476562 44.296875 30.476562 44.296875 C 30.699219 44.25 30.914062 44.199219 31.125 44.144531 C 31.445312 44.0625 31.753906 43.972656 32.050781 43.875 C 32.070312 43.867188 32.085938 43.859375 32.105469 43.855469 C 32.574219 43.699219 33.011719 43.523438 33.417969 43.332031 C 33.5 43.292969 33.585938 43.25 33.667969 43.207031 C 33.683594 43.199219 33.699219 43.1875 33.71875 43.179688 C 34.328125 42.863281 34.84375 42.507812 35.242188 42.128906 C 35.257812 42.109375 35.277344 42.089844 35.296875 42.074219 C 35.875 41.503906 36.199219 40.871094 36.199219 40.210938 C 36.199219 39.664062 35.976562 39.136719 35.570312 38.644531 C 35.214844 38.222656 34.726562 37.828125 34.128906 37.472656 Z M 33.132812 37.671875 C 33.121094 37.683594 33.109375 37.695312 33.097656 37.707031 L 33.097656 40.261719 C 33.117188 40.226562 33.136719 40.195312 33.15625 40.164062 C 33.167969 40.140625 33.179688 40.117188 33.191406 40.097656 C 33.195312 40.082031 33.203125 40.070312 33.210938 40.054688 C 33.226562 40.027344 33.238281 40 33.25 39.96875 C 33.253906 39.964844 33.257812 39.957031 33.261719 39.953125 C 33.273438 39.921875 33.285156 39.890625 33.296875 39.859375 C 33.300781 39.855469 33.300781 39.847656 33.304688 39.84375 C 33.316406 39.8125 33.328125 39.78125 33.335938 39.75 C 33.339844 39.746094 33.339844 39.738281 33.34375 39.734375 C 33.355469 39.703125 33.363281 39.671875 33.371094 39.644531 C 33.375 39.636719 33.375 39.628906 33.378906 39.617188 C 33.386719 39.589844 33.390625 39.5625 33.398438 39.535156 C 33.402344 39.523438 33.402344 39.511719 33.40625 39.5 C 33.410156 39.476562 33.414062 39.449219 33.421875 39.425781 C 33.421875 39.410156 33.425781 39.394531 33.425781 39.378906 C 33.429688 39.355469 33.433594 39.335938 33.4375 39.3125 C 33.4375 39.292969 33.441406 39.273438 33.441406 39.253906 C 33.445312 39.234375 33.445312 39.214844 33.445312 39.195312 C 33.449219 39.164062 33.449219 39.128906 33.449219 39.09375 C 33.449219 39.089844 33.449219 39.085938 33.449219 39.082031 L 33.449219 37.300781 C 33.441406 37.308594 33.4375 37.320312 33.429688 37.328125 C 33.40625 37.359375 33.378906 37.390625 33.355469 37.417969 C 33.34375 37.433594 33.332031 37.445312 33.320312 37.460938 C 33.296875 37.488281 33.273438 37.519531 33.246094 37.546875 C 33.234375 37.558594 33.222656 37.574219 33.207031 37.589844 C 33.183594 37.617188 33.160156 37.644531 33.132812 37.671875 Z M 25.703125 43.480469 C 25.730469 43.476562 25.753906 43.476562 25.777344 43.472656 L 25.777344 40.511719 C 25.453125 40.546875 25.128906 40.570312 24.792969 40.589844 L 24.792969 43.550781 C 24.90625 43.546875 25.015625 43.539062 25.125 43.53125 C 25.140625 43.527344 25.160156 43.527344 25.175781 43.527344 C 25.21875 43.523438 25.261719 43.519531 25.304688 43.515625 C 25.425781 43.507812 25.542969 43.496094 25.664062 43.484375 C 25.675781 43.484375 25.691406 43.480469 25.703125 43.480469 Z M 22.113281 43.53125 C 22.226562 43.539062 22.339844 43.546875 22.457031 43.550781 L 22.457031 40.589844 C 22.125 40.570312 21.796875 40.546875 21.472656 40.515625 L 21.472656 43.472656 C 21.492188 43.476562 21.511719 43.476562 21.53125 43.480469 C 21.554688 43.480469 21.574219 43.484375 21.59375 43.484375 C 21.707031 43.496094 21.820312 43.507812 21.9375 43.515625 C 21.988281 43.519531 22.039062 43.523438 22.09375 43.527344 C 22.097656 43.527344 22.105469 43.527344 22.113281 43.53125 Z M 30.867188 44.898438 L 30.867188 47.84375 C 31.203125 47.765625 31.53125 47.675781 31.847656 47.574219 L 31.847656 44.640625 C 31.53125 44.734375 31.203125 44.820312 30.867188 44.898438 Z M 32.527344 44.421875 L 32.527344 47.34375 C 32.839844 47.226562 33.136719 47.101562 33.417969 46.96875 C 33.445312 46.953125 33.476562 46.9375 33.507812 46.921875 L 33.507812 44.03125 C 33.199219 44.167969 32.871094 44.300781 32.527344 44.421875 Z M 30.1875 45.042969 C 29.867188 45.101562 29.539062 45.15625 29.203125 45.199219 L 29.203125 48.15625 C 29.539062 48.109375 29.867188 48.054688 30.1875 47.992188 Z M 28.527344 48.242188 L 28.527344 45.28125 C 28.203125 45.3125 27.875 45.339844 27.542969 45.355469 L 27.542969 48.320312 C 27.875 48.300781 28.203125 48.273438 28.527344 48.242188 Z M 26.375 45.386719 C 26.210938 45.386719 26.046875 45.386719 25.882812 45.382812 L 25.882812 48.34375 C 26.015625 48.347656 26.144531 48.347656 26.277344 48.351562 C 26.308594 48.351562 26.339844 48.351562 26.375 48.351562 C 26.539062 48.351562 26.703125 48.347656 26.867188 48.34375 L 26.867188 45.382812 C 26.703125 45.386719 26.539062 45.386719 26.375 45.386719 Z M 31.519531 38.878906 C 31.492188 38.894531 31.464844 38.910156 31.4375 38.925781 L 31.4375 41.785156 C 31.570312 41.703125 31.699219 41.621094 31.824219 41.535156 C 32.042969 41.382812 32.242188 41.226562 32.417969 41.0625 L 32.417969 38.300781 C 32.417969 38.300781 32.414062 38.300781 32.414062 38.304688 C 32.402344 38.3125 32.386719 38.320312 32.375 38.332031 C 32.335938 38.359375 32.300781 38.386719 32.261719 38.414062 C 32.242188 38.425781 32.222656 38.4375 32.207031 38.453125 C 32.171875 38.476562 32.136719 38.5 32.101562 38.523438 C 32.082031 38.535156 32.058594 38.550781 32.039062 38.566406 C 32.007812 38.585938 31.972656 38.609375 31.9375 38.628906 C 31.914062 38.644531 31.894531 38.660156 31.871094 38.671875 C 31.835938 38.695312 31.804688 38.714844 31.769531 38.734375 C 31.746094 38.75 31.722656 38.761719 31.695312 38.777344 C 31.660156 38.796875 31.625 38.816406 31.59375 38.839844 C 31.566406 38.851562 31.542969 38.867188 31.519531 38.878906 Z M 30.757812 39.261719 C 30.449219 39.402344 30.121094 39.53125 29.777344 39.652344 L 29.777344 42.574219 C 29.910156 42.523438 30.042969 42.472656 30.175781 42.417969 C 30.378906 42.332031 30.570312 42.246094 30.757812 42.15625 Z M 29.097656 39.875 C 28.78125 39.96875 28.453125 40.054688 28.117188 40.132812 L 28.117188 43.078125 C 28.257812 43.042969 28.398438 43.007812 28.539062 42.96875 L 28.558594 42.964844 C 28.566406 42.964844 28.574219 42.960938 28.582031 42.960938 C 28.695312 42.925781 28.8125 42.894531 28.925781 42.859375 C 28.9375 42.855469 28.953125 42.851562 28.964844 42.847656 C 29.011719 42.835938 29.054688 42.820312 29.097656 42.808594 Z M 27.4375 40.273438 C 27.117188 40.335938 26.789062 40.386719 26.453125 40.433594 L 26.453125 43.390625 C 26.488281 43.386719 26.519531 43.382812 26.550781 43.375 C 26.578125 43.371094 26.609375 43.367188 26.636719 43.363281 C 26.683594 43.355469 26.726562 43.351562 26.769531 43.34375 C 26.800781 43.339844 26.832031 43.332031 26.863281 43.328125 C 26.886719 43.324219 26.910156 43.320312 26.933594 43.316406 C 27.101562 43.289062 27.269531 43.257812 27.4375 43.222656 Z M 24.117188 43.578125 L 24.117188 40.613281 C 23.953125 40.617188 23.789062 40.621094 23.625 40.621094 C 23.460938 40.621094 23.296875 40.617188 23.132812 40.613281 L 23.132812 43.578125 C 23.296875 43.582031 23.460938 43.582031 23.625 43.582031 C 23.789062 43.582031 23.953125 43.582031 24.117188 43.578125 Z M 22.5625 47.976562 C 22.882812 48.042969 23.210938 48.097656 23.542969 48.144531 L 23.542969 45.203125 C 23.210938 45.15625 22.882812 45.101562 22.5625 45.042969 Z M 24.222656 45.28125 L 24.222656 48.230469 C 24.546875 48.265625 24.875 48.292969 25.203125 48.3125 L 25.203125 45.355469 C 24.871094 45.339844 24.546875 45.3125 24.222656 45.28125 Z M 16.894531 45.015625 L 16.902344 45.023438 L 16.902344 43.070312 C 16.882812 43.066406 16.863281 43.058594 16.847656 43.050781 C 16.800781 43.03125 16.757812 43.011719 16.710938 42.992188 C 16.683594 42.980469 16.65625 42.96875 16.625 42.957031 C 16.601562 42.945312 16.574219 42.933594 16.550781 42.921875 L 16.550781 43.847656 C 16.550781 43.921875 16.554688 43.996094 16.5625 44.066406 C 16.5625 44.085938 16.566406 44.105469 16.570312 44.121094 C 16.570312 44.136719 16.570312 44.148438 16.574219 44.164062 C 16.578125 44.179688 16.582031 44.199219 16.582031 44.214844 C 16.589844 44.242188 16.59375 44.265625 16.597656 44.289062 C 16.613281 44.347656 16.625 44.398438 16.640625 44.449219 C 16.652344 44.480469 16.664062 44.515625 16.671875 44.546875 C 16.695312 44.613281 16.71875 44.671875 16.746094 44.730469 C 16.757812 44.753906 16.769531 44.78125 16.78125 44.800781 C 16.78125 44.804688 16.78125 44.804688 16.78125 44.804688 C 16.785156 44.816406 16.792969 44.824219 16.796875 44.835938 C 16.820312 44.882812 16.847656 44.933594 16.878906 44.988281 C 16.886719 44.996094 16.890625 45.003906 16.894531 45.015625 Z M 19.132812 40.132812 C 18.796875 40.054688 18.46875 39.96875 18.152344 39.875 L 18.152344 42.808594 L 18.230469 42.832031 L 18.550781 42.925781 C 18.554688 42.925781 18.554688 42.925781 18.558594 42.929688 C 18.574219 42.933594 18.59375 42.9375 18.609375 42.941406 C 18.667969 42.960938 18.730469 42.976562 18.789062 42.992188 C 18.792969 42.992188 18.800781 42.992188 18.808594 42.996094 C 18.84375 43.003906 18.875 43.011719 18.910156 43.023438 C 18.960938 43.035156 19.007812 43.046875 19.058594 43.058594 C 19.082031 43.066406 19.109375 43.070312 19.136719 43.078125 L 19.136719 40.132812 Z M 17.886719 46.089844 C 17.921875 46.117188 17.960938 46.148438 18 46.175781 C 18.011719 46.1875 18.027344 46.195312 18.039062 46.207031 L 18.207031 46.324219 C 18.269531 46.367188 18.335938 46.414062 18.410156 46.460938 L 18.554688 46.550781 C 18.554688 46.550781 18.558594 46.550781 18.5625 46.554688 L 18.5625 43.691406 C 18.539062 43.679688 18.515625 43.667969 18.492188 43.65625 C 18.460938 43.636719 18.429688 43.617188 18.398438 43.601562 C 18.371094 43.585938 18.347656 43.574219 18.324219 43.558594 L 18.03125 43.472656 C 17.929688 43.441406 17.828125 43.40625 17.722656 43.375 C 17.707031 43.367188 17.695312 43.363281 17.679688 43.359375 C 17.667969 43.355469 17.652344 43.351562 17.636719 43.34375 C 17.625 43.339844 17.613281 43.335938 17.601562 43.332031 C 17.59375 43.328125 17.585938 43.328125 17.578125 43.324219 L 17.578125 45.820312 C 17.667969 45.90625 17.765625 45.992188 17.886719 46.089844 Z M 20.222656 47.332031 L 20.222656 44.421875 C 20.210938 44.417969 20.195312 44.414062 20.179688 44.40625 C 20.144531 44.394531 20.105469 44.378906 20.070312 44.367188 C 20.03125 44.351562 19.992188 44.335938 19.953125 44.324219 C 19.914062 44.308594 19.878906 44.292969 19.84375 44.28125 C 19.804688 44.265625 19.765625 44.25 19.726562 44.234375 C 19.691406 44.222656 19.65625 44.207031 19.621094 44.191406 C 19.582031 44.175781 19.546875 44.160156 19.507812 44.144531 C 19.472656 44.132812 19.4375 44.117188 19.402344 44.101562 C 19.367188 44.085938 19.328125 44.070312 19.292969 44.054688 C 19.277344 44.046875 19.257812 44.035156 19.242188 44.027344 L 19.242188 46.914062 C 19.550781 47.066406 19.878906 47.203125 20.222656 47.332031 Z M 20.796875 43.390625 L 20.796875 40.433594 C 20.460938 40.386719 20.132812 40.335938 19.8125 40.273438 L 19.8125 43.222656 C 19.851562 43.230469 19.890625 43.242188 19.933594 43.25 C 19.9375 43.25 19.941406 43.25 19.945312 43.25 C 20.066406 43.273438 20.1875 43.296875 20.308594 43.316406 C 20.339844 43.320312 20.367188 43.324219 20.394531 43.332031 C 20.421875 43.335938 20.445312 43.339844 20.46875 43.34375 C 20.519531 43.351562 20.570312 43.359375 20.621094 43.367188 C 20.644531 43.367188 20.667969 43.371094 20.691406 43.375 C 20.726562 43.382812 20.761719 43.386719 20.796875 43.390625 Z M 16.492188 39.261719 L 16.492188 42.15625 C 16.5 42.160156 16.511719 42.164062 16.519531 42.167969 C 16.535156 42.175781 16.550781 42.183594 16.566406 42.191406 C 16.734375 42.273438 16.914062 42.351562 17.105469 42.429688 C 17.226562 42.480469 17.347656 42.527344 17.472656 42.574219 L 17.472656 39.652344 C 17.128906 39.53125 16.800781 39.402344 16.492188 39.261719 Z M 21.65625 44.847656 C 21.621094 44.835938 21.585938 44.828125 21.550781 44.820312 C 21.5 44.804688 21.449219 44.792969 21.398438 44.78125 C 21.359375 44.769531 21.320312 44.761719 21.28125 44.75 C 21.238281 44.738281 21.191406 44.726562 21.148438 44.710938 C 21.105469 44.703125 21.066406 44.691406 21.027344 44.679688 C 20.984375 44.664062 20.941406 44.652344 20.902344 44.640625 L 20.902344 47.558594 C 21.21875 47.660156 21.546875 47.75 21.882812 47.828125 L 21.882812 44.898438 C 21.808594 44.882812 21.730469 44.863281 21.65625 44.847656 Z M 30.90625 42.828125 C 31.449219 42.6875 31.945312 42.523438 32.390625 42.335938 C 33.753906 41.761719 34.59375 41.011719 34.59375 40.214844 C 34.59375 39.96875 34.515625 39.726562 34.359375 39.492188 C 34.296875 39.390625 34.21875 39.292969 34.125 39.199219 C 34.125 39.199219 34.125 39.203125 34.125 39.207031 C 34.125 39.214844 34.125 39.222656 34.125 39.230469 C 34.125 39.246094 34.121094 39.257812 34.121094 39.273438 C 34.121094 39.285156 34.121094 39.296875 34.121094 39.308594 C 34.117188 39.320312 34.117188 39.332031 34.117188 39.34375 C 34.113281 39.359375 34.113281 39.371094 34.113281 39.382812 C 34.109375 39.398438 34.109375 39.410156 34.105469 39.425781 C 34.101562 39.460938 34.097656 39.5 34.089844 39.539062 C 34.085938 39.550781 34.085938 39.558594 34.082031 39.570312 C 34.074219 39.613281 34.066406 39.65625 34.054688 39.699219 C 34.054688 39.707031 34.054688 39.710938 34.050781 39.714844 C 33.992188 39.96875 33.894531 40.21875 33.761719 40.457031 C 33.757812 40.464844 33.753906 40.472656 33.75 40.480469 C 33.730469 40.515625 33.707031 40.554688 33.6875 40.59375 C 33.679688 40.605469 33.671875 40.617188 33.664062 40.628906 C 33.644531 40.660156 33.625 40.691406 33.605469 40.71875 C 33.59375 40.738281 33.582031 40.757812 33.570312 40.773438 C 33.554688 40.792969 33.539062 40.816406 33.523438 40.835938 C 33.375 41.042969 33.203125 41.242188 33.007812 41.4375 C 33 41.445312 32.992188 41.453125 32.984375 41.457031 C 32.753906 41.679688 32.496094 41.890625 32.210938 42.085938 C 31.921875 42.289062 31.601562 42.480469 31.261719 42.65625 C 31.261719 42.65625 31.257812 42.65625 31.257812 42.65625 C 31.257812 42.65625 31.253906 42.65625 31.253906 42.660156 C 31.191406 42.691406 31.128906 42.722656 31.066406 42.753906 C 31.054688 42.761719 31.039062 42.765625 31.027344 42.773438 C 30.988281 42.789062 30.949219 42.808594 30.90625 42.828125 Z M 14.832031 41.066406 C 15.109375 41.320312 15.4375 41.5625 15.8125 41.789062 L 15.8125 38.925781 C 15.785156 38.910156 15.757812 38.894531 15.730469 38.878906 C 15.707031 38.867188 15.683594 38.851562 15.660156 38.839844 C 15.625 38.820312 15.585938 38.796875 15.550781 38.777344 C 15.527344 38.765625 15.507812 38.75 15.484375 38.738281 C 15.449219 38.714844 15.414062 38.695312 15.378906 38.671875 C 15.355469 38.660156 15.335938 38.644531 15.3125 38.632812 C 15.277344 38.609375 15.242188 38.585938 15.207031 38.5625 C 15.1875 38.550781 15.167969 38.539062 15.148438 38.523438 C 15.113281 38.5 15.078125 38.476562 15.039062 38.449219 C 15.023438 38.4375 15.007812 38.425781 14.992188 38.417969 C 14.949219 38.386719 14.910156 38.359375 14.871094 38.328125 C 14.859375 38.320312 14.847656 38.3125 14.839844 38.304688 C 14.835938 38.304688 14.832031 38.300781 14.832031 38.300781 Z M 15.949219 50.601562 C 16.226562 50.855469 16.558594 51.097656 16.933594 51.324219 L 16.933594 48.460938 C 16.90625 48.445312 16.878906 48.429688 16.851562 48.414062 C 16.824219 48.402344 16.800781 48.386719 16.773438 48.371094 C 16.742188 48.351562 16.707031 48.332031 16.675781 48.3125 C 16.648438 48.296875 16.625 48.285156 16.601562 48.269531 C 16.566406 48.25 16.535156 48.230469 16.5 48.207031 C 16.476562 48.195312 16.453125 48.179688 16.429688 48.164062 C 16.398438 48.144531 16.363281 48.121094 16.332031 48.101562 C 16.308594 48.085938 16.289062 48.074219 16.265625 48.058594 C 16.234375 48.035156 16.199219 48.011719 16.164062 47.988281 C 16.148438 47.976562 16.128906 47.960938 16.109375 47.949219 C 16.070312 47.921875 16.035156 47.894531 15.996094 47.867188 C 15.984375 47.859375 15.96875 47.847656 15.957031 47.839844 C 15.953125 47.835938 15.953125 47.835938 15.949219 47.835938 Z M 19.269531 49.410156 L 19.269531 52.34375 C 19.585938 52.441406 19.914062 52.53125 20.253906 52.613281 L 20.253906 49.667969 C 19.914062 49.589844 19.589844 49.503906 19.269531 49.410156 Z M 20.933594 52.761719 C 21.25 52.824219 21.578125 52.878906 21.914062 52.925781 L 21.914062 49.96875 C 21.582031 49.921875 21.253906 49.871094 20.933594 49.808594 Z M 22.59375 53.007812 C 22.914062 53.042969 23.242188 53.066406 23.574219 53.085938 L 23.574219 50.125 C 23.242188 50.105469 22.914062 50.082031 22.59375 50.046875 Z M 25.914062 50.125 L 25.914062 53.085938 C 26.246094 53.066406 26.574219 53.042969 26.894531 53.007812 L 26.894531 50.046875 C 26.574219 50.082031 26.246094 50.105469 25.914062 50.125 Z M 27.574219 52.925781 C 27.910156 52.878906 28.238281 52.824219 28.558594 52.761719 L 28.558594 49.808594 C 28.238281 49.871094 27.910156 49.921875 27.574219 49.96875 Z M 29.234375 52.613281 C 29.574219 52.53125 29.902344 52.441406 30.21875 52.34375 L 30.21875 49.410156 C 30.210938 49.410156 30.207031 49.414062 30.203125 49.414062 C 29.890625 49.507812 29.566406 49.589844 29.234375 49.667969 Z M 32.554688 48.460938 L 32.554688 51.324219 C 32.929688 51.097656 33.261719 50.855469 33.539062 50.601562 L 33.539062 47.835938 C 33.539062 47.835938 33.535156 47.835938 33.535156 47.839844 C 33.5 47.863281 33.460938 47.890625 33.425781 47.917969 C 33.394531 47.941406 33.363281 47.960938 33.332031 47.984375 C 33.292969 48.011719 33.253906 48.039062 33.210938 48.066406 C 33.179688 48.085938 33.152344 48.105469 33.121094 48.125 C 33.078125 48.152344 33.03125 48.183594 32.988281 48.210938 C 32.957031 48.226562 32.929688 48.246094 32.902344 48.265625 C 32.851562 48.292969 32.800781 48.320312 32.753906 48.351562 C 32.726562 48.367188 32.699219 48.382812 32.671875 48.398438 C 32.632812 48.417969 32.59375 48.4375 32.554688 48.460938 Z M 34.71875 46.199219 C 34.882812 46.082031 35.03125 45.960938 35.167969 45.832031 L 35.167969 43.066406 C 35.167969 43.070312 35.164062 43.070312 35.160156 43.074219 C 35.152344 43.082031 35.140625 43.089844 35.128906 43.097656 C 35.089844 43.125 35.050781 43.15625 35.007812 43.183594 C 34.992188 43.195312 34.976562 43.207031 34.960938 43.21875 C 34.921875 43.242188 34.886719 43.269531 34.851562 43.292969 C 34.832031 43.308594 34.8125 43.320312 34.792969 43.332031 C 34.757812 43.355469 34.722656 43.378906 34.6875 43.402344 C 34.664062 43.414062 34.644531 43.429688 34.621094 43.441406 C 34.585938 43.464844 34.550781 43.484375 34.515625 43.507812 C 34.492188 43.519531 34.472656 43.53125 34.449219 43.546875 C 34.414062 43.566406 34.375 43.589844 34.339844 43.609375 C 34.316406 43.621094 34.292969 43.636719 34.269531 43.648438 C 34.242188 43.664062 34.214844 43.679688 34.1875 43.695312 L 34.1875 46.546875 C 34.359375 46.445312 34.53125 46.339844 34.707031 46.210938 C 34.710938 46.203125 34.714844 46.203125 34.71875 46.199219 Z M 13.800781 35.445312 C 13.800781 35.808594 13.898438 36.167969 14.085938 36.507812 C 14.234375 36.785156 14.441406 37.050781 14.699219 37.304688 C 14.722656 37.320312 14.738281 37.339844 14.753906 37.359375 C 15.15625 37.742188 15.671875 38.097656 16.277344 38.414062 C 16.296875 38.421875 16.316406 38.429688 16.332031 38.441406 C 16.414062 38.484375 16.496094 38.523438 16.582031 38.566406 C 16.988281 38.757812 17.425781 38.933594 17.894531 39.089844 C 17.914062 39.09375 17.929688 39.101562 17.945312 39.105469 C 18.441406 39.269531 18.96875 39.414062 19.523438 39.53125 C 19.539062 39.535156 19.550781 39.539062 19.5625 39.539062 C 20.074219 39.648438 20.609375 39.738281 21.164062 39.804688 C 21.167969 39.804688 21.171875 39.804688 21.179688 39.804688 C 21.960938 39.898438 22.78125 39.949219 23.625 39.949219 C 24.46875 39.949219 25.289062 39.898438 26.070312 39.804688 C 26.074219 39.804688 26.082031 39.804688 26.085938 39.804688 C 26.640625 39.738281 27.175781 39.648438 27.691406 39.539062 C 27.699219 39.539062 27.710938 39.535156 27.722656 39.535156 C 28.28125 39.414062 28.808594 39.273438 29.304688 39.109375 C 29.320312 39.101562 29.335938 39.097656 29.355469 39.089844 C 29.824219 38.933594 30.261719 38.757812 30.667969 38.566406 C 30.753906 38.527344 30.835938 38.484375 30.917969 38.441406 C 30.933594 38.433594 30.953125 38.421875 30.96875 38.414062 C 31.578125 38.097656 32.09375 37.746094 32.496094 37.363281 C 32.511719 37.339844 32.527344 37.324219 32.546875 37.308594 C 32.871094 36.988281 33.117188 36.648438 33.269531 36.296875 C 33.386719 36.019531 33.449219 35.738281 33.449219 35.445312 C 33.449219 34.25 32.386719 33.144531 30.667969 32.324219 C 28.871094 31.472656 26.382812 30.941406 23.625 30.941406 C 20.867188 30.941406 18.378906 31.472656 16.582031 32.324219 C 14.863281 33.144531 13.800781 34.25 13.800781 35.445312 Z M 13.800781 39.082031 C 13.800781 39.488281 13.921875 39.882812 14.152344 40.261719 L 14.152344 37.707031 C 14.140625 37.695312 14.128906 37.683594 14.117188 37.671875 C 14.089844 37.644531 14.066406 37.613281 14.039062 37.585938 C 14.027344 37.574219 14.015625 37.558594 14.003906 37.546875 C 13.976562 37.515625 13.953125 37.488281 13.929688 37.457031 C 13.917969 37.445312 13.90625 37.429688 13.894531 37.417969 C 13.867188 37.390625 13.84375 37.359375 13.820312 37.328125 C 13.8125 37.316406 13.808594 37.308594 13.800781 37.300781 Z M 15.273438 43.796875 C 15.042969 44.171875 14.917969 44.570312 14.917969 44.980469 C 14.917969 45.179688 14.949219 45.378906 15.007812 45.570312 C 15.292969 46.539062 16.269531 47.417969 17.703125 48.101562 C 19.496094 48.957031 21.988281 49.484375 24.746094 49.484375 C 26.679688 49.484375 28.484375 49.222656 30.007812 48.773438 C 30.050781 48.757812 30.089844 48.746094 30.132812 48.734375 C 30.179688 48.71875 30.226562 48.703125 30.273438 48.691406 C 30.320312 48.675781 30.363281 48.660156 30.40625 48.648438 C 30.441406 48.636719 30.476562 48.625 30.511719 48.613281 C 30.253906 48.667969 30.003906 48.710938 29.757812 48.75 C 29.480469 48.796875 29.199219 48.835938 28.914062 48.871094 C 28.90625 48.875 28.898438 48.875 28.894531 48.875 C 28.167969 48.960938 27.414062 49.011719 26.640625 49.019531 C 26.636719 49.019531 26.636719 49.019531 26.636719 49.019531 C 26.550781 49.023438 26.460938 49.023438 26.375 49.023438 C 25.507812 49.023438 24.664062 48.972656 23.855469 48.875 C 23.847656 48.875 23.84375 48.871094 23.835938 48.871094 C 23.476562 48.828125 23.125 48.777344 22.78125 48.714844 C 20.820312 48.53125 19.109375 48.078125 17.890625 47.453125 C 16.609375 46.796875 15.84375 45.9375 15.84375 44.980469 C 15.84375 44.875 15.855469 44.761719 15.878906 44.648438 C 15.890625 44.574219 15.910156 44.5 15.933594 44.425781 C 15.914062 44.335938 15.898438 44.25 15.890625 44.160156 C 15.890625 44.15625 15.890625 44.152344 15.890625 44.152344 C 15.890625 44.152344 15.890625 44.152344 15.890625 44.148438 C 15.878906 44.050781 15.871094 43.949219 15.871094 43.851562 C 15.871094 43.847656 15.871094 43.847656 15.871094 43.847656 L 15.871094 43.070312 C 15.628906 43.300781 15.429688 43.546875 15.273438 43.796875 Z M 14.917969 48.613281 C 14.917969 49.023438 15.042969 49.417969 15.269531 49.796875 L 15.269531 47.242188 C 15.257812 47.230469 15.25 47.21875 15.238281 47.207031 C 15.210938 47.179688 15.183594 47.152344 15.160156 47.121094 C 15.148438 47.109375 15.132812 47.09375 15.121094 47.078125 C 15.097656 47.050781 15.074219 47.023438 15.046875 46.996094 C 15.035156 46.980469 15.023438 46.964844 15.011719 46.953125 C 14.988281 46.921875 14.964844 46.894531 14.941406 46.863281 C 14.933594 46.855469 14.925781 46.84375 14.917969 46.835938 Z M 17.703125 51.734375 C 17.984375 51.867188 18.28125 51.992188 18.59375 52.109375 L 18.59375 49.1875 C 18.25 49.066406 17.921875 48.9375 17.609375 48.796875 L 17.609375 51.691406 C 17.640625 51.707031 17.671875 51.71875 17.703125 51.734375 Z M 25.234375 53.113281 L 25.234375 50.148438 C 25.074219 50.152344 24.910156 50.15625 24.746094 50.15625 C 24.578125 50.15625 24.414062 50.152344 24.253906 50.148438 L 24.253906 53.113281 C 24.414062 53.117188 24.578125 53.117188 24.746094 53.117188 C 24.910156 53.117188 25.074219 53.117188 25.234375 53.113281 Z M 31.785156 51.734375 C 31.816406 51.71875 31.847656 51.703125 31.878906 51.691406 L 31.878906 48.796875 C 31.816406 48.824219 31.753906 48.851562 31.691406 48.878906 C 31.679688 48.882812 31.667969 48.886719 31.65625 48.894531 C 31.570312 48.929688 31.480469 48.96875 31.390625 49.003906 C 31.390625 49.003906 31.386719 49.007812 31.382812 49.007812 C 31.226562 49.070312 31.0625 49.128906 30.894531 49.1875 L 30.894531 52.109375 C 31.207031 51.996094 31.503906 51.867188 31.785156 51.734375 Z M 34.570312 47.109375 C 34.460938 47.179688 34.335938 47.246094 34.21875 47.3125 L 34.21875 49.796875 C 34.445312 49.417969 34.570312 49.023438 34.570312 48.613281 Z M 36.179688 42.09375 C 36.15625 42.125 36.128906 42.15625 36.105469 42.1875 C 36.09375 42.199219 36.082031 42.210938 36.074219 42.226562 C 36.046875 42.253906 36.023438 42.285156 35.996094 42.3125 C 35.984375 42.328125 35.972656 42.339844 35.960938 42.355469 C 35.933594 42.382812 35.90625 42.410156 35.878906 42.441406 C 35.871094 42.453125 35.859375 42.464844 35.847656 42.472656 L 35.847656 45.027344 C 36.078125 44.648438 36.199219 44.253906 36.199219 43.847656 L 36.199219 42.066406 C 36.195312 42.078125 36.1875 42.085938 36.179688 42.09375 Z M 36.179688 42.09375 "/>
</g>
</g>
</svg>