<svg width="396" height="89" viewBox="0 0 396 89" fill="none" xmlns="http://www.w3.org/2000/svg">
<path d="M57.25 18.6016V24.2016C57.25 27.4016 59.85 30.0016 63.05 30.0016H66.15C65.15 24.5016 61.75 20.7016 57.25 18.6016Z" fill="#011933"/>
<path d="M57.25 62.8023V71.7024C57.85 71.0024 58.35 70.2023 58.75 69.3023C59.85 67.0023 61.75 60.0023 59.85 57.9023C58.25 58.9023 57.25 60.7024 57.25 62.7024V62.8023Z" fill="#011933"/>
<path d="M21.25 25.2016C23.95 25.7016 26.65 26.6015 29.05 27.8015C29.85 26.8015 30.25 25.6016 30.25 24.2016V10.6016C26.05 14.6016 22.75 19.7016 21.25 25.2016Z" fill="#011933"/>
<path d="M46.0504 10.5016C49.8504 10.5016 53.7504 11.0015 57.2504 12.3015V5.90155C57.2504 2.70155 54.6504 0.101562 51.4504 0.101562H46.1504C46.1504 3.40156 45.7504 10.2016 46.1504 10.6016L46.0504 10.5016Z" fill="#011933"/>
<path d="M57.25 71.803V62.903C57.25 60.903 58.25 59.103 59.85 58.103C59.85 58.103 59.85 58.003 59.65 57.903C57.05 55.703 47.05 58.603 42.85 56.003C39.05 53.603 37.65 45.503 35.25 41.503C28.15 29.403 12.25 27.803 0.549988 34.003C0.349988 34.603 0.25 35.203 0.25 35.903V51.303C0.25 54.503 2.84999 57.103 6.04999 57.103H12.55C12.55 49.903 12.05 42.503 12.55 35.403C13.65 32.303 17.95 32.703 18.35 36.003C17.85 41.903 18.55 49.603 18.55 57.203H24.45C27.65 57.203 30.25 59.803 30.25 63.003V74.703C30.55 75.003 30.95 75.203 31.25 75.503C38.75 80.103 51.55 79.203 57.25 71.903V71.803ZM30.15 57.603C25.75 56.903 26.25 50.203 30.55 49.703C36.55 49.003 36.65 58.603 30.15 57.603Z" fill="#011933"/>
<path d="M30.25 81.6016C30.45 84.6016 32.95 86.9016 36.05 86.9016H51.45C54.65 86.9016 57.25 84.3016 57.25 81.1016V79.6016C49.65 84.7016 38.35 85.5016 30.25 81.5016V81.6016Z" fill="#011933"/>
<path d="M81.3492 30.0008H71.9492C72.0492 32.1008 71.9492 34.7008 72.3492 36.0008C72.6492 37.1008 75.3492 39.1008 76.0492 40.3008C77.7492 43.6008 73.5492 50.9008 70.7492 52.8008C67.8492 54.8008 64.4492 53.2008 65.6492 49.7008C66.0492 48.7008 68.0492 47.2008 68.8492 45.9008C69.1492 45.4008 70.1492 43.5008 70.1492 43.1008C70.1492 41.8008 66.5492 39.3008 66.1492 37.9008C65.6492 36.3008 66.3492 34.8008 66.3492 33.3008C66.3492 32.1008 66.2492 31.0008 66.0492 30.0008H62.9492C59.7492 30.0008 57.1492 27.4008 57.1492 24.2008V18.6008C52.9492 16.6008 47.8492 16.0008 42.6492 16.8008C41.8492 16.8008 40.1492 15.4008 40.1492 14.8008V3.80078C36.5492 5.40078 33.0492 7.70078 30.1492 10.6008V24.2008C30.1492 25.5008 29.6492 26.8008 28.9492 27.8008C34.3492 30.6008 38.8492 35.1008 41.5492 40.6008C42.5492 42.5008 44.8492 50.5008 46.3492 51.2008C48.0492 52.0008 56.2492 51.1008 59.0492 51.4008C62.8492 51.9008 64.9492 54.1008 65.8492 57.0008H81.3492C84.5492 57.0008 87.1492 54.4008 87.1492 51.2008V35.8008C87.1492 32.6008 84.5492 30.0008 81.3492 30.0008ZM57.9492 39.1008C53.2492 39.0008 52.9492 32.4008 57.0492 31.6008C63.4492 30.5008 63.4492 39.2008 57.9492 39.1008Z" fill="#011933"/>
<path d="M131.948 60.3031H128.548C126.348 60.3031 124.648 59.7031 123.648 58.4031L109.448 41.9031V56.8031C109.448 59.1031 108.148 60.3031 105.948 60.3031H102.348C100.048 60.3031 98.8477 59.0031 98.8477 56.8031V10.2031C98.8477 7.90313 100.148 6.70312 102.348 6.70312H105.948C108.248 6.70312 109.448 8.00312 109.448 10.2031V38.6031L123.648 24.4031C124.648 23.2031 126.348 22.7031 128.548 22.7031H131.648C134.948 22.7031 136.248 24.5031 134.448 26.5031L120.348 40.2031L134.848 56.5031C136.448 58.6031 135.148 60.3031 131.948 60.3031Z" fill="#011933"/>
<path d="M177.948 36.7016V49.3015C177.948 57.3015 174.348 60.3015 166.048 60.3015H157.348C148.048 60.3015 142.348 57.8015 142.348 48.8015C142.348 39.8015 148.048 37.3015 157.348 37.3015H167.248V36.7016C167.248 32.5016 163.948 30.7016 158.348 30.7016C152.748 30.7016 152.048 31.2016 148.448 31.9016C146.048 32.4016 144.548 31.2015 144.548 28.8015V27.4016C144.548 25.3016 145.748 23.9016 148.248 23.4016C152.448 22.5016 156.448 22.1016 159.848 22.1016C170.248 22.1016 177.848 26.5015 177.848 36.8015L177.948 36.7016ZM167.348 48.8015V44.9016H157.948C153.348 44.9016 152.348 46.0015 152.348 48.8015C152.348 51.6015 153.348 52.7016 157.948 52.7016H163.548C166.848 52.7016 167.348 51.4015 167.348 48.8015Z" fill="#011933"/>
<path d="M225.147 39.7039V56.8039C225.147 59.1039 223.847 60.3039 221.647 60.3039H218.047C215.747 60.3039 214.547 59.0039 214.547 56.8039V39.6039C214.547 32.9039 212.047 31.0039 206.347 31.0039C200.647 31.0039 198.147 32.9039 198.147 39.6039V56.8039C198.147 59.1039 196.847 60.3039 194.647 60.3039H191.047C188.747 60.3039 187.547 59.0039 187.547 56.8039V39.7039C187.547 26.0039 194.447 22.0039 206.347 22.0039C218.247 22.0039 225.147 26.0039 225.147 39.7039Z" fill="#011933"/>
<path d="M271.248 34.0039V61.6039C271.248 71.7039 263.248 76.3039 252.948 76.3039C242.648 76.3039 246.148 75.8039 242.648 74.9039C240.648 74.4039 239.648 73.0039 239.648 71.0039V69.6039C239.648 67.1039 241.148 66.0039 243.548 66.5039C246.448 67.2039 249.248 67.6039 251.848 67.6039C257.048 67.6039 260.648 65.9039 260.648 61.6039V60.8039C258.748 61.0039 256.948 61.0039 255.248 61.0039C241.848 61.0039 233.848 56.1039 233.848 41.5039C233.848 26.9039 241.848 22.0039 255.248 22.0039C268.648 22.0039 271.248 25.4039 271.248 34.0039ZM260.548 51.7039V35.7039C260.548 32.6039 259.948 31.0039 254.448 31.0039C248.948 31.0039 244.448 33.6039 244.448 41.6039C244.448 49.6039 247.448 52.1039 254.548 52.1039C261.648 52.1039 258.248 51.9039 260.548 51.7039Z" fill="#011933"/>
<path d="M311.246 22.7031H314.846C317.146 22.7031 318.346 24.0031 318.346 26.2031V43.3031C318.346 57.0031 311.446 61.0031 299.546 61.0031C287.646 61.0031 280.746 57.0031 280.746 43.3031V26.2031C280.746 23.9031 282.046 22.7031 284.246 22.7031H287.846C290.146 22.7031 291.346 24.0031 291.346 26.2031V43.4031C291.346 50.1031 293.846 52.0031 299.546 52.0031C305.246 52.0031 307.746 50.1031 307.746 43.4031V26.2031C307.746 23.9031 309.046 22.7031 311.246 22.7031Z" fill="#011933"/>
<path d="M350.948 25.8023V28.0023C350.948 30.3024 349.648 31.5024 347.048 31.6024C339.048 31.7024 338.648 32.4023 338.648 35.3023V56.8023C338.648 59.1023 337.348 60.3023 335.148 60.3023H331.348C329.048 60.3023 327.848 59.0023 327.848 56.8023V33.8023C327.848 25.0023 330.948 22.7023 347.148 22.4023C349.648 22.4023 350.948 23.6023 350.948 25.9023V25.8023Z" fill="#011933"/>
<path d="M356.246 41.5039C356.246 29.1039 363.146 22.0039 375.646 22.0039C388.146 22.0039 395.046 29.1039 395.046 41.5039C395.046 53.9039 388.146 61.0039 375.646 61.0039C363.146 61.0039 356.246 53.9039 356.246 41.5039ZM384.146 41.5039C384.146 34.1039 381.346 30.9039 375.546 30.9039C369.746 30.9039 366.946 34.0039 366.946 41.5039C366.946 49.0039 369.746 52.0039 375.546 52.0039C381.346 52.0039 384.146 48.8039 384.146 41.5039Z" fill="#011933"/>
<path d="M104.164 78.0879C104.164 78.7839 103.924 79.3639 103.444 79.8279C102.972 80.2839 102.248 80.5119 101.272 80.5119H99.6644V84.0039H98.5724V75.6399H101.272C102.216 75.6399 102.932 75.8679 103.42 76.3239C103.916 76.7799 104.164 77.3679 104.164 78.0879ZM101.272 79.6119C101.88 79.6119 102.328 79.4799 102.616 79.2159C102.904 78.9519 103.048 78.5759 103.048 78.0879C103.048 77.0559 102.456 76.5399 101.272 76.5399H99.6644V79.6119H101.272ZM111.522 80.4639C111.522 80.6719 111.51 80.8919 111.486 81.1239H106.23C106.27 81.7719 106.49 82.2799 106.89 82.6479C107.298 83.0079 107.79 83.1879 108.366 83.1879C108.838 83.1879 109.23 83.0799 109.542 82.8639C109.862 82.6399 110.086 82.3439 110.214 81.9759H111.39C111.214 82.6079 110.862 83.1239 110.334 83.5239C109.806 83.9159 109.15 84.1119 108.366 84.1119C107.742 84.1119 107.182 83.9719 106.686 83.6919C106.198 83.4119 105.814 83.0159 105.534 82.5039C105.254 81.9839 105.114 81.3839 105.114 80.7039C105.114 80.0239 105.25 79.4279 105.522 78.9159C105.794 78.4039 106.174 78.0119 106.662 77.7399C107.158 77.4599 107.726 77.3199 108.366 77.3199C108.99 77.3199 109.542 77.4559 110.022 77.7279C110.502 77.9999 110.87 78.3759 111.126 78.8559C111.39 79.3279 111.522 79.8639 111.522 80.4639ZM110.394 80.2359C110.394 79.8199 110.302 79.4639 110.118 79.1679C109.934 78.8639 109.682 78.6359 109.362 78.4839C109.05 78.3239 108.702 78.2439 108.318 78.2439C107.766 78.2439 107.294 78.4199 106.902 78.7719C106.518 79.1239 106.298 79.6119 106.242 80.2359H110.394ZM114.295 78.3279V82.2039C114.295 82.5239 114.363 82.7519 114.499 82.8879C114.635 83.0159 114.871 83.0799 115.207 83.0799H116.011V84.0039H115.027C114.419 84.0039 113.963 83.8639 113.659 83.5839C113.355 83.3039 113.203 82.8439 113.203 82.2039V78.3279H112.351V77.4279H113.203V75.7719H114.295V77.4279H116.011V78.3279H114.295ZM126.125 78.0879C126.125 78.7839 125.885 79.3639 125.405 79.8279C124.933 80.2839 124.209 80.5119 123.233 80.5119H121.625V84.0039H120.533V75.6399H123.233C124.177 75.6399 124.893 75.8679 125.381 76.3239C125.877 76.7799 126.125 77.3679 126.125 78.0879ZM123.233 79.6119C123.841 79.6119 124.289 79.4799 124.577 79.2159C124.865 78.9519 125.009 78.5759 125.009 78.0879C125.009 77.0559 124.417 76.5399 123.233 76.5399H121.625V79.6119H123.233ZM130.747 77.3079C131.243 77.3079 131.691 77.4159 132.091 77.6319C132.491 77.8399 132.803 78.1559 133.027 78.5799C133.259 79.0039 133.375 79.5199 133.375 80.1279V84.0039H132.295V80.2839C132.295 79.6279 132.131 79.1279 131.803 78.7839C131.475 78.4319 131.027 78.2559 130.459 78.2559C129.883 78.2559 129.423 78.4359 129.079 78.7959C128.743 79.1559 128.575 79.6799 128.575 80.3679V84.0039H127.483V75.1239H128.575V78.3639C128.791 78.0279 129.087 77.7679 129.463 77.5839C129.847 77.3999 130.275 77.3079 130.747 77.3079ZM134.75 80.6919C134.75 80.0199 134.886 79.4319 135.158 78.9279C135.43 78.4159 135.802 78.0199 136.274 77.7399C136.754 77.4599 137.286 77.3199 137.87 77.3199C138.446 77.3199 138.946 77.4439 139.37 77.6919C139.794 77.9399 140.11 78.2519 140.318 78.6279V77.4279H141.422V84.0039H140.318V82.7799C140.102 83.1639 139.778 83.4839 139.346 83.7399C138.922 83.9879 138.426 84.1119 137.858 84.1119C137.274 84.1119 136.746 83.9679 136.274 83.6799C135.802 83.3919 135.43 82.9879 135.158 82.4679C134.886 81.9479 134.75 81.3559 134.75 80.6919ZM140.318 80.7039C140.318 80.2079 140.218 79.7759 140.018 79.4079C139.818 79.0399 139.546 78.7599 139.202 78.5679C138.866 78.3679 138.494 78.2679 138.086 78.2679C137.678 78.2679 137.306 78.3639 136.97 78.5559C136.634 78.7479 136.366 79.0279 136.166 79.3959C135.966 79.7639 135.866 80.1959 135.866 80.6919C135.866 81.1959 135.966 81.6359 136.166 82.0119C136.366 82.3799 136.634 82.6639 136.97 82.8639C137.306 83.0559 137.678 83.1519 138.086 83.1519C138.494 83.1519 138.866 83.0559 139.202 82.8639C139.546 82.6639 139.818 82.3799 140.018 82.0119C140.218 81.6359 140.318 81.1999 140.318 80.7039ZM144.36 78.4959C144.552 78.1199 144.824 77.8279 145.176 77.6199C145.536 77.4119 145.972 77.3079 146.484 77.3079V78.4359H146.196C144.972 78.4359 144.36 79.0999 144.36 80.4279V84.0039H143.268V77.4279H144.36V78.4959ZM155.652 77.3079C156.164 77.3079 156.62 77.4159 157.02 77.6319C157.42 77.8399 157.736 78.1559 157.968 78.5799C158.2 79.0039 158.316 79.5199 158.316 80.1279V84.0039H157.236V80.2839C157.236 79.6279 157.072 79.1279 156.744 78.7839C156.424 78.4319 155.988 78.2559 155.436 78.2559C154.868 78.2559 154.416 78.4399 154.08 78.8079C153.744 79.1679 153.576 79.6919 153.576 80.3799V84.0039H152.496V80.2839C152.496 79.6279 152.332 79.1279 152.004 78.7839C151.684 78.4319 151.248 78.2559 150.696 78.2559C150.128 78.2559 149.676 78.4399 149.34 78.8079C149.004 79.1679 148.836 79.6919 148.836 80.3799V84.0039H147.744V77.4279H148.836V78.3759C149.052 78.0319 149.34 77.7679 149.7 77.5839C150.068 77.3999 150.472 77.3079 150.912 77.3079C151.464 77.3079 151.952 77.4319 152.376 77.6799C152.8 77.9279 153.116 78.2919 153.324 78.7719C153.508 78.3079 153.812 77.9479 154.236 77.6919C154.66 77.4359 155.132 77.3079 155.652 77.3079ZM159.7 80.6919C159.7 80.0199 159.836 79.4319 160.108 78.9279C160.38 78.4159 160.752 78.0199 161.224 77.7399C161.704 77.4599 162.236 77.3199 162.82 77.3199C163.396 77.3199 163.896 77.4439 164.32 77.6919C164.744 77.9399 165.06 78.2519 165.268 78.6279V77.4279H166.372V84.0039H165.268V82.7799C165.052 83.1639 164.728 83.4839 164.296 83.7399C163.872 83.9879 163.376 84.1119 162.808 84.1119C162.224 84.1119 161.696 83.9679 161.224 83.6799C160.752 83.3919 160.38 82.9879 160.108 82.4679C159.836 81.9479 159.7 81.3559 159.7 80.6919ZM165.268 80.7039C165.268 80.2079 165.168 79.7759 164.968 79.4079C164.768 79.0399 164.496 78.7599 164.152 78.5679C163.816 78.3679 163.444 78.2679 163.036 78.2679C162.628 78.2679 162.256 78.3639 161.92 78.5559C161.584 78.7479 161.316 79.0279 161.116 79.3959C160.916 79.7639 160.816 80.1959 160.816 80.6919C160.816 81.1959 160.916 81.6359 161.116 82.0119C161.316 82.3799 161.584 82.6639 161.92 82.8639C162.256 83.0559 162.628 83.1519 163.036 83.1519C163.444 83.1519 163.816 83.0559 164.152 82.8639C164.496 82.6639 164.768 82.3799 164.968 82.0119C165.168 81.6359 165.268 81.1999 165.268 80.7039ZM167.809 80.7039C167.809 80.0239 167.945 79.4319 168.217 78.9279C168.489 78.4159 168.865 78.0199 169.345 77.7399C169.833 77.4599 170.389 77.3199 171.013 77.3199C171.821 77.3199 172.485 77.5159 173.005 77.9079C173.533 78.2999 173.881 78.8439 174.049 79.5399H172.873C172.761 79.1399 172.541 78.8239 172.213 78.5919C171.893 78.3599 171.493 78.2439 171.013 78.2439C170.389 78.2439 169.885 78.4599 169.501 78.8919C169.117 79.3159 168.925 79.9199 168.925 80.7039C168.925 81.4959 169.117 82.1079 169.501 82.5399C169.885 82.9719 170.389 83.1879 171.013 83.1879C171.493 83.1879 171.893 83.0759 172.213 82.8519C172.533 82.6279 172.753 82.3079 172.873 81.8919H174.049C173.873 82.5639 173.521 83.1039 172.993 83.5119C172.465 83.9119 171.805 84.1119 171.013 84.1119C170.389 84.1119 169.833 83.9719 169.345 83.6919C168.865 83.4119 168.489 83.0159 168.217 82.5039C167.945 81.9919 167.809 81.3919 167.809 80.7039ZM181.17 77.4279L177.21 87.0999H176.082L177.378 83.9319L174.726 77.4279H175.938L178.002 82.7559L180.042 77.4279H181.17Z" fill="#011933"/>
</svg>
